<mxfile host="app.diagrams.net" modified="2023-09-24T08:04:02.517Z" agent="Mozilla/5.0 (Windows NT 10.0; Win64; x64) AppleWebKit/537.36 (KHTML, like Gecko) Chrome/117.0.0.0 Safari/537.36" etag="VDi5mnlaajNORTVrHp3P" version="21.8.1" type="device">
  <diagram id="C5RBs43oDa-KdzZeNtuy" name="Page-1">
    <mxGraphModel dx="814" dy="450" grid="1" gridSize="10" guides="1" tooltips="1" connect="1" arrows="1" fold="1" page="1" pageScale="1" pageWidth="827" pageHeight="1169" math="0" shadow="0">
      <root>
        <mxCell id="WIyWlLk6GJQsqaUBKTNV-0" />
        <mxCell id="WIyWlLk6GJQsqaUBKTNV-1" parent="WIyWlLk6GJQsqaUBKTNV-0" />
        <mxCell id="eC2a8UjIciiMIohcdk7m-3" value="Class" style="rounded=0;whiteSpace=wrap;html=1;" vertex="1" parent="WIyWlLk6GJQsqaUBKTNV-1">
          <mxGeometry x="620" y="230" width="120" height="60" as="geometry" />
        </mxCell>
        <mxCell id="eC2a8UjIciiMIohcdk7m-4" value="Student" style="rounded=0;whiteSpace=wrap;html=1;" vertex="1" parent="WIyWlLk6GJQsqaUBKTNV-1">
          <mxGeometry x="150" y="230" width="120" height="60" as="geometry" />
        </mxCell>
        <mxCell id="eC2a8UjIciiMIohcdk7m-5" value="Enroll" style="rhombus;whiteSpace=wrap;html=1;" vertex="1" parent="WIyWlLk6GJQsqaUBKTNV-1">
          <mxGeometry x="400" y="230" width="80" height="80" as="geometry" />
        </mxCell>
        <mxCell id="eC2a8UjIciiMIohcdk7m-6" value="last name" style="ellipse;whiteSpace=wrap;html=1;" vertex="1" parent="WIyWlLk6GJQsqaUBKTNV-1">
          <mxGeometry x="60" y="90" width="90" height="45" as="geometry" />
        </mxCell>
        <mxCell id="eC2a8UjIciiMIohcdk7m-7" value="stuId" style="ellipse;whiteSpace=wrap;html=1;" vertex="1" parent="WIyWlLk6GJQsqaUBKTNV-1">
          <mxGeometry x="210" y="90" width="90" height="40" as="geometry" />
        </mxCell>
        <mxCell id="eC2a8UjIciiMIohcdk7m-9" value="first name" style="ellipse;whiteSpace=wrap;html=1;" vertex="1" parent="WIyWlLk6GJQsqaUBKTNV-1">
          <mxGeometry x="50" y="355" width="70" height="40" as="geometry" />
        </mxCell>
        <mxCell id="eC2a8UjIciiMIohcdk7m-10" value="credits" style="ellipse;whiteSpace=wrap;html=1;" vertex="1" parent="WIyWlLk6GJQsqaUBKTNV-1">
          <mxGeometry x="200" y="370" width="70" height="47.5" as="geometry" />
        </mxCell>
        <mxCell id="eC2a8UjIciiMIohcdk7m-11" value="grade" style="ellipse;whiteSpace=wrap;html=1;" vertex="1" parent="WIyWlLk6GJQsqaUBKTNV-1">
          <mxGeometry x="410" y="390" width="90" height="50" as="geometry" />
        </mxCell>
        <mxCell id="eC2a8UjIciiMIohcdk7m-12" value="class number" style="ellipse;whiteSpace=wrap;html=1;" vertex="1" parent="WIyWlLk6GJQsqaUBKTNV-1">
          <mxGeometry x="620" y="85" width="90" height="50" as="geometry" />
        </mxCell>
        <mxCell id="eC2a8UjIciiMIohcdk7m-13" value="shedule" style="ellipse;whiteSpace=wrap;html=1;" vertex="1" parent="WIyWlLk6GJQsqaUBKTNV-1">
          <mxGeometry x="590" y="350" width="110" height="40" as="geometry" />
        </mxCell>
        <mxCell id="eC2a8UjIciiMIohcdk7m-14" value="room" style="ellipse;whiteSpace=wrap;html=1;" vertex="1" parent="WIyWlLk6GJQsqaUBKTNV-1">
          <mxGeometry x="730" y="345" width="97" height="50" as="geometry" />
        </mxCell>
        <mxCell id="eC2a8UjIciiMIohcdk7m-19" value="" style="endArrow=none;html=1;rounded=0;entryX=0.967;entryY=0.66;entryDx=0;entryDy=0;entryPerimeter=0;exitX=0.025;exitY=0.66;exitDx=0;exitDy=0;exitPerimeter=0;" edge="1" parent="WIyWlLk6GJQsqaUBKTNV-1" source="eC2a8UjIciiMIohcdk7m-12" target="eC2a8UjIciiMIohcdk7m-12">
          <mxGeometry width="50" height="50" relative="1" as="geometry">
            <mxPoint x="620" y="110" as="sourcePoint" />
            <mxPoint x="710" y="110" as="targetPoint" />
            <Array as="points" />
          </mxGeometry>
        </mxCell>
        <mxCell id="eC2a8UjIciiMIohcdk7m-22" value="" style="endArrow=none;html=1;rounded=0;exitX=0.824;exitY=-0.009;exitDx=0;exitDy=0;exitPerimeter=0;" edge="1" parent="WIyWlLk6GJQsqaUBKTNV-1" source="eC2a8UjIciiMIohcdk7m-4" target="eC2a8UjIciiMIohcdk7m-7">
          <mxGeometry width="50" height="50" relative="1" as="geometry">
            <mxPoint x="220" y="190" as="sourcePoint" />
            <mxPoint x="270" y="140" as="targetPoint" />
          </mxGeometry>
        </mxCell>
        <mxCell id="eC2a8UjIciiMIohcdk7m-23" value="" style="endArrow=none;html=1;rounded=0;entryX=0.5;entryY=1;entryDx=0;entryDy=0;" edge="1" parent="WIyWlLk6GJQsqaUBKTNV-1" target="eC2a8UjIciiMIohcdk7m-5">
          <mxGeometry width="50" height="50" relative="1" as="geometry">
            <mxPoint x="440" y="390" as="sourcePoint" />
            <mxPoint x="490" y="340" as="targetPoint" />
          </mxGeometry>
        </mxCell>
        <mxCell id="eC2a8UjIciiMIohcdk7m-24" value="" style="endArrow=none;html=1;rounded=0;entryX=0.408;entryY=1.073;entryDx=0;entryDy=0;entryPerimeter=0;" edge="1" parent="WIyWlLk6GJQsqaUBKTNV-1" source="eC2a8UjIciiMIohcdk7m-10" target="eC2a8UjIciiMIohcdk7m-4">
          <mxGeometry width="50" height="50" relative="1" as="geometry">
            <mxPoint x="130" y="382.5" as="sourcePoint" />
            <mxPoint x="180" y="332.5" as="targetPoint" />
          </mxGeometry>
        </mxCell>
        <mxCell id="eC2a8UjIciiMIohcdk7m-25" value="" style="endArrow=none;html=1;rounded=0;" edge="1" parent="WIyWlLk6GJQsqaUBKTNV-1">
          <mxGeometry width="50" height="50" relative="1" as="geometry">
            <mxPoint x="90" y="350" as="sourcePoint" />
            <mxPoint x="150" y="260" as="targetPoint" />
          </mxGeometry>
        </mxCell>
        <mxCell id="eC2a8UjIciiMIohcdk7m-26" value="" style="endArrow=none;html=1;rounded=0;exitX=0.146;exitY=-0.055;exitDx=0;exitDy=0;exitPerimeter=0;" edge="1" parent="WIyWlLk6GJQsqaUBKTNV-1" source="eC2a8UjIciiMIohcdk7m-4" target="eC2a8UjIciiMIohcdk7m-6">
          <mxGeometry width="50" height="50" relative="1" as="geometry">
            <mxPoint x="80" y="185" as="sourcePoint" />
            <mxPoint x="130" y="135" as="targetPoint" />
          </mxGeometry>
        </mxCell>
        <mxCell id="eC2a8UjIciiMIohcdk7m-27" value="" style="endArrow=none;html=1;rounded=0;" edge="1" parent="WIyWlLk6GJQsqaUBKTNV-1">
          <mxGeometry width="50" height="50" relative="1" as="geometry">
            <mxPoint x="700" y="230" as="sourcePoint" />
            <mxPoint x="670" y="135" as="targetPoint" />
          </mxGeometry>
        </mxCell>
        <mxCell id="eC2a8UjIciiMIohcdk7m-28" value="" style="endArrow=none;html=1;rounded=0;exitX=0.5;exitY=0;exitDx=0;exitDy=0;" edge="1" parent="WIyWlLk6GJQsqaUBKTNV-1" source="eC2a8UjIciiMIohcdk7m-13">
          <mxGeometry width="50" height="50" relative="1" as="geometry">
            <mxPoint x="640" y="345" as="sourcePoint" />
            <mxPoint x="680" y="295" as="targetPoint" />
          </mxGeometry>
        </mxCell>
        <mxCell id="eC2a8UjIciiMIohcdk7m-29" value="" style="endArrow=none;html=1;rounded=0;entryX=0.833;entryY=1;entryDx=0;entryDy=0;entryPerimeter=0;" edge="1" parent="WIyWlLk6GJQsqaUBKTNV-1" target="eC2a8UjIciiMIohcdk7m-3">
          <mxGeometry width="50" height="50" relative="1" as="geometry">
            <mxPoint x="777" y="345" as="sourcePoint" />
            <mxPoint x="827" y="295" as="targetPoint" />
          </mxGeometry>
        </mxCell>
        <mxCell id="eC2a8UjIciiMIohcdk7m-30" value="" style="endArrow=none;html=1;rounded=0;exitX=0.024;exitY=0.617;exitDx=0;exitDy=0;entryX=1;entryY=0.5;entryDx=0;entryDy=0;exitPerimeter=0;" edge="1" parent="WIyWlLk6GJQsqaUBKTNV-1" source="eC2a8UjIciiMIohcdk7m-3" target="eC2a8UjIciiMIohcdk7m-5">
          <mxGeometry width="50" height="50" relative="1" as="geometry">
            <mxPoint x="460" y="310" as="sourcePoint" />
            <mxPoint x="510" y="260" as="targetPoint" />
          </mxGeometry>
        </mxCell>
        <mxCell id="eC2a8UjIciiMIohcdk7m-31" value="" style="endArrow=none;html=1;rounded=0;exitX=1.001;exitY=0.629;exitDx=0;exitDy=0;entryX=0;entryY=0.5;entryDx=0;entryDy=0;exitPerimeter=0;" edge="1" parent="WIyWlLk6GJQsqaUBKTNV-1" source="eC2a8UjIciiMIohcdk7m-4" target="eC2a8UjIciiMIohcdk7m-5">
          <mxGeometry width="50" height="50" relative="1" as="geometry">
            <mxPoint x="460" y="310" as="sourcePoint" />
            <mxPoint x="510" y="260" as="targetPoint" />
          </mxGeometry>
        </mxCell>
      </root>
    </mxGraphModel>
  </diagram>
</mxfile>
